<svg width="1000" height="400" viewBox="0 0 1000 400" fill="none" xmlns="http://www.w3.org/2000/svg">
<path fill-rule="evenodd" clip-rule="evenodd" d="M247.5 77.5H142.5L72.5 147.5V252.5L142.5 322.5H247.5L317.5 252.5V147.5L247.5 77.5ZM300 243.75L238.75 305H151.25L90 243.75V156.25L151.25 95H238.75L300 156.25V243.75ZM177.5 130H212.5V217.5H177.5V130ZM177.5 235H212.5V270H177.5V235Z" fill="#F90505"/>
<path d="M482.558 122.365C487.802 116.477 494.921 113.532 503.915 113.532C512.909 113.532 520.028 116.477 525.272 122.365C530.517 128.254 533.139 136.237 533.139 146.315C533.139 156.394 530.517 164.377 525.272 170.266C520.028 176.125 512.909 179.055 503.915 179.055C494.921 179.055 487.802 176.125 482.558 170.266C477.313 164.377 474.691 156.394 474.691 146.315C474.691 136.237 477.313 128.254 482.558 122.365ZM519.296 127.727C515.517 123.127 510.39 120.827 503.915 120.827C497.44 120.827 492.299 123.127 488.49 127.727C484.711 132.297 482.821 138.493 482.821 146.315C482.821 154.108 484.711 160.305 488.49 164.904C492.299 169.475 497.44 171.76 503.915 171.76C510.39 171.76 515.517 169.475 519.296 164.904C523.104 160.305 525.009 154.108 525.009 146.315C525.009 138.493 523.104 132.297 519.296 127.727ZM569.086 179.055C560.326 179.055 553.368 176.11 548.212 170.222C543.085 164.304 540.521 156.32 540.521 146.271C540.521 136.311 543.114 128.371 548.3 122.453C553.485 116.506 560.414 113.532 569.086 113.532C576 113.532 581.859 115.466 586.664 119.333C591.498 123.171 594.413 128.254 595.409 134.582H587.411C586.386 130.422 584.203 127.097 580.863 124.606C577.523 122.087 573.598 120.827 569.086 120.827C562.904 120.827 557.953 123.142 554.232 127.771C550.512 132.399 548.651 138.566 548.651 146.271C548.651 154.064 550.497 160.261 554.188 164.86C557.88 169.46 562.86 171.76 569.13 171.76C573.788 171.76 577.714 170.69 580.907 168.552C584.101 166.413 586.269 163.41 587.411 159.543H595.409C593.944 165.812 590.941 170.632 586.4 174.001C581.859 177.37 576.088 179.055 569.086 179.055ZM610.175 122.365C615.419 116.477 622.538 113.532 631.532 113.532C640.526 113.532 647.646 116.477 652.89 122.365C658.134 128.254 660.756 136.237 660.756 146.315C660.756 156.394 658.134 164.377 652.89 170.266C647.646 176.125 640.526 179.055 631.532 179.055C622.538 179.055 615.419 176.125 610.175 170.266C604.931 164.377 602.309 156.394 602.309 146.315C602.309 136.237 604.931 128.254 610.175 122.365ZM646.913 127.727C643.134 123.127 638.007 120.827 631.532 120.827C625.058 120.827 619.916 123.127 616.107 127.727C612.328 132.297 610.438 138.493 610.438 146.315C610.438 154.108 612.328 160.305 616.107 164.904C619.916 169.475 625.058 171.76 631.532 171.76C638.007 171.76 643.134 169.475 646.913 164.904C650.722 160.305 652.626 154.108 652.626 146.315C652.626 138.493 650.722 132.297 646.913 127.727ZM678.51 121.618V145.92H693.671C697.743 145.92 700.878 144.865 703.075 142.756C705.302 140.646 706.415 137.644 706.415 133.747C706.415 129.938 705.258 126.965 702.943 124.826C700.629 122.688 697.421 121.618 693.319 121.618H678.51ZM678.51 152.907V178H670.6V114.587H694.374C700.497 114.587 705.39 116.315 709.052 119.772C712.743 123.2 714.589 127.771 714.589 133.483C714.589 137.907 713.461 141.73 711.205 144.953C708.949 148.176 705.829 150.417 701.845 151.677L716.522 178H707.25L693.671 152.907H678.51ZM732.475 121.618V145.92H747.636C751.708 145.92 754.843 144.865 757.04 142.756C759.267 140.646 760.38 137.644 760.38 133.747C760.38 129.938 759.223 126.965 756.908 124.826C754.594 122.688 751.386 121.618 747.284 121.618H732.475ZM732.475 152.907V178H724.564V114.587H748.339C754.462 114.587 759.354 116.315 763.017 119.772C766.708 123.2 768.554 127.771 768.554 133.483C768.554 137.907 767.426 141.73 765.17 144.953C762.914 148.176 759.794 150.417 755.81 151.677L770.487 178H761.215L747.636 152.907H732.475ZM817.816 170.881V178H778.529V114.587H817.816V121.706H786.439V142.053H816.19V149.084H786.439V170.881H817.816ZM836.186 114.587V155.236C836.186 160.129 837.709 164.113 840.756 167.189C843.832 170.236 848.065 171.76 853.456 171.76C858.847 171.76 863.065 170.236 866.112 167.189C869.188 164.113 870.727 160.129 870.727 155.236V114.587H878.637V155.764C878.637 162.648 876.366 168.259 871.825 172.595C867.313 176.901 861.19 179.055 853.456 179.055C845.722 179.055 839.584 176.901 835.043 172.595C830.531 168.259 828.275 162.648 828.275 155.764V114.587H836.186ZM503.52 221.587V262.236C503.52 267.129 505.043 271.113 508.09 274.189C511.166 277.236 515.399 278.76 520.79 278.76C526.181 278.76 530.399 277.236 533.446 274.189C536.522 271.113 538.061 267.129 538.061 262.236V221.587H545.971V262.764C545.971 269.648 543.7 275.259 539.159 279.595C534.647 283.901 528.524 286.055 520.79 286.055C513.056 286.055 506.918 283.901 502.377 279.595C497.865 275.259 495.609 269.648 495.609 262.764V221.587H503.52ZM620.766 285H613.383V236.133H613.075L592.86 284.561H586.181L565.966 236.133H565.658V285H558.275V221.587H567.46L589.345 274.497H589.696L611.581 221.587H620.766V285ZM690.814 277.881V285H651.527V221.587H690.814V228.706H659.438V249.053H689.188V256.084H659.438V277.881H690.814ZM709.184 228.618V252.92H724.345C728.417 252.92 731.552 251.865 733.749 249.756C735.976 247.646 737.089 244.644 737.089 240.747C737.089 236.938 735.932 233.965 733.617 231.826C731.303 229.688 728.095 228.618 723.993 228.618H709.184ZM709.184 259.907V285H701.273V221.587H725.048C731.171 221.587 736.063 223.315 739.726 226.772C743.417 230.2 745.263 234.771 745.263 240.483C745.263 244.907 744.135 248.73 741.879 251.953C739.623 255.176 736.503 257.417 732.519 258.677L747.196 285H737.924L724.345 259.907H709.184ZM763.148 228.618V252.92H778.31C782.382 252.92 785.517 251.865 787.714 249.756C789.94 247.646 791.054 244.644 791.054 240.747C791.054 236.938 789.896 233.965 787.582 231.826C785.268 229.688 782.06 228.618 777.958 228.618H763.148ZM763.148 259.907V285H755.238V221.587H779.013C785.136 221.587 790.028 223.315 793.69 226.772C797.382 230.2 799.228 234.771 799.228 240.483C799.228 244.907 798.1 248.73 795.844 251.953C793.588 255.176 790.468 257.417 786.483 258.677L801.161 285H791.889L778.31 259.907H763.148ZM814.608 229.365C819.853 223.477 826.972 220.532 835.966 220.532C844.96 220.532 852.079 223.477 857.323 229.365C862.567 235.254 865.189 243.237 865.189 253.315C865.189 263.394 862.567 271.377 857.323 277.266C852.079 283.125 844.96 286.055 835.966 286.055C826.972 286.055 819.853 283.125 814.608 277.266C809.364 271.377 806.742 263.394 806.742 253.315C806.742 243.237 809.364 235.254 814.608 229.365ZM851.347 234.727C847.567 230.127 842.44 227.827 835.966 227.827C829.491 227.827 824.35 230.127 820.541 234.727C816.762 239.297 814.872 245.493 814.872 253.315C814.872 261.108 816.762 267.305 820.541 271.904C824.35 276.475 829.491 278.76 835.966 278.76C842.44 278.76 847.567 276.475 851.347 271.904C855.155 267.305 857.06 261.108 857.06 253.315C857.06 245.493 855.155 239.297 851.347 234.727Z" fill="black" fill-opacity="0.35"/>
</svg>
